<svg xmlns="http://www.w3.org/2000/svg" version="1.1" xmlns:xlink="http://www.w3.org/1999/xlink" xmlns:svgjs="http://svgjs.dev/svgjs" viewBox="0 0 800 800"><defs><linearGradient x1="50%" y1="0%" x2="50%" y2="100%" id="ffflurry-grad" gradientTransform="rotate(270)"><stop stop-color="hsl(238, 82%, 13%)" stop-opacity="1" offset="0%"></stop><stop stop-color="hsl(167, 78%, 20%)" stop-opacity="1" offset="45%"></stop><stop stop-color="hsl(167, 52%, 78%)" stop-opacity="1" offset="100%"></stop></linearGradient></defs><rect width="100%" height="100%" fill="hsl(180, 69%, 30%)"></rect><g fill="hsl(0, 0%, 0%)"><rect width="674" height="3" x="-294" y="185.5" rx="1.5" transform="rotate(45, 43, 187)" opacity="0.55"></rect><rect width="326" height="3" x="473" y="752.5" rx="1.5" transform="rotate(45, 636, 754)" opacity="0.69"></rect><rect width="93" height="3" x="694.5" y="32.5" rx="1.5" transform="rotate(45, 741, 34)" opacity="0.24"></rect><rect width="479" height="3" x="524.5" y="543.5" rx="1.5" transform="rotate(45, 764, 545)" opacity="0.28"></rect><rect width="372" height="3" x="83" y="452.5" rx="1.5" transform="rotate(45, 269, 454)" opacity="0.40"></rect><rect width="398" height="3" x="496" y="170.5" rx="1.5" transform="rotate(45, 695, 172)" opacity="0.45"></rect><rect width="567" height="3" x="127.5" y="303.5" rx="1.5" transform="rotate(45, 411, 305)" opacity="0.07"></rect><rect width="282" height="3" x="194" y="60.5" rx="1.5" transform="rotate(45, 335, 62)" opacity="0.62"></rect><rect width="131" height="3" x="528.5" y="288.5" rx="1.5" transform="rotate(45, 594, 290)" opacity="0.32"></rect><rect width="432" height="3" x="266" y="688.5" rx="1.5" transform="rotate(45, 482, 690)" opacity="0.23"></rect><rect width="265" height="3" x="477.5" y="206.5" rx="1.5" transform="rotate(45, 610, 208)" opacity="0.52"></rect><rect width="644" height="3" x="-263" y="342.5" rx="1.5" transform="rotate(45, 59, 344)" opacity="0.97"></rect><rect width="400" height="3" x="297" y="300.5" rx="1.5" transform="rotate(45, 497, 302)" opacity="0.81"></rect><rect width="417" height="3" x="550.5" y="115.5" rx="1.5" transform="rotate(45, 759, 117)" opacity="1.00"></rect><rect width="99" height="3" x="490.5" y="93.5" rx="1.5" transform="rotate(45, 540, 95)" opacity="0.39"></rect><rect width="209" height="3" x="577.5" y="488.5" rx="1.5" transform="rotate(45, 682, 490)" opacity="0.37"></rect><rect width="335" height="3" x="123.5" y="653.5" rx="1.5" transform="rotate(45, 291, 655)" opacity="0.07"></rect><rect width="434" height="3" x="277" y="613.5" rx="1.5" transform="rotate(45, 494, 615)" opacity="0.30"></rect><rect width="238" height="3" x="502" y="143.5" rx="1.5" transform="rotate(45, 621, 145)" opacity="0.71"></rect><rect width="245" height="3" x="190.5" y="386.5" rx="1.5" transform="rotate(45, 313, 388)" opacity="0.17"></rect><rect width="195" height="3" x="238.5" y="115.5" rx="1.5" transform="rotate(45, 336, 117)" opacity="0.59"></rect><rect width="73" height="3" x="397.5" y="25.5" rx="1.5" transform="rotate(45, 434, 27)" opacity="0.75"></rect><rect width="265" height="3" x="642.5" y="215.5" rx="1.5" transform="rotate(45, 775, 217)" opacity="0.26"></rect><rect width="408" height="3" x="248" y="507.5" rx="1.5" transform="rotate(45, 452, 509)" opacity="0.50"></rect><rect width="281" height="3" x="34.5" y="373.5" rx="1.5" transform="rotate(45, 175, 375)" opacity="0.23"></rect><rect width="383" height="3" x="-42.5" y="757.5" rx="1.5" transform="rotate(45, 149, 759)" opacity="0.08"></rect><rect width="393" height="3" x="355.5" y="740.5" rx="1.5" transform="rotate(45, 552, 742)" opacity="0.48"></rect><rect width="280" height="3" x="349" y="768.5" rx="1.5" transform="rotate(45, 489, 770)" opacity="0.69"></rect><rect width="314" height="3" x="50" y="105.5" rx="1.5" transform="rotate(45, 207, 107)" opacity="0.65"></rect><rect width="255" height="3" x="549.5" y="260.5" rx="1.5" transform="rotate(45, 677, 262)" opacity="0.48"></rect><rect width="479" height="3" x="519.5" y="341.5" rx="1.5" transform="rotate(45, 759, 343)" opacity="0.82"></rect><rect width="433" height="3" x="184.5" y="449.5" rx="1.5" transform="rotate(45, 401, 451)" opacity="0.90"></rect><rect width="74" height="3" x="308" y="518.5" rx="1.5" transform="rotate(45, 345, 520)" opacity="0.21"></rect><rect width="235" height="3" x="628.5" y="759.5" rx="1.5" transform="rotate(45, 746, 761)" opacity="0.22"></rect><rect width="526" height="3" x="-6" y="43.5" rx="1.5" transform="rotate(45, 257, 45)" opacity="0.46"></rect><rect width="477" height="3" x="117.5" y="186.5" rx="1.5" transform="rotate(45, 356, 188)" opacity="0.29"></rect><rect width="400" height="3" x="183" y="624.5" rx="1.5" transform="rotate(45, 383, 626)" opacity="0.53"></rect><rect width="518" height="3" x="78" y="761.5" rx="1.5" transform="rotate(45, 337, 763)" opacity="0.21"></rect><rect width="159" height="3" x="154.5" y="353.5" rx="1.5" transform="rotate(45, 234, 355)" opacity="0.40"></rect><rect width="136" height="3" x="267" y="261.5" rx="1.5" transform="rotate(45, 335, 263)" opacity="0.95"></rect><rect width="543" height="3" x="464.5" y="680.5" rx="1.5" transform="rotate(45, 736, 682)" opacity="0.56"></rect><rect width="544" height="3" x="178" y="187.5" rx="1.5" transform="rotate(45, 450, 189)" opacity="0.88"></rect><rect width="288" height="3" x="531" y="355.5" rx="1.5" transform="rotate(45, 675, 357)" opacity="0.91"></rect><rect width="256" height="3" x="462" y="26.5" rx="1.5" transform="rotate(45, 590, 28)" opacity="0.70"></rect><rect width="638" height="3" x="-251" y="702.5" rx="1.5" transform="rotate(45, 68, 704)" opacity="0.72"></rect><rect width="593" height="3" x="457.5" y="438.5" rx="1.5" transform="rotate(45, 754, 440)" opacity="0.74"></rect><rect width="55" height="3" x="262.5" y="581.5" rx="1.5" transform="rotate(45, 290, 583)" opacity="0.29"></rect><rect width="203" height="3" x="-58.5" y="447.5" rx="1.5" transform="rotate(45, 43, 449)" opacity="0.46"></rect><rect width="348" height="3" x="561" y="248.5" rx="1.5" transform="rotate(45, 735, 250)" opacity="0.93"></rect><rect width="223" height="3" x="490.5" y="475.5" rx="1.5" transform="rotate(45, 602, 477)" opacity="0.58"></rect><rect width="432" height="3" x="310" y="520.5" rx="1.5" transform="rotate(45, 526, 522)" opacity="0.60"></rect><rect width="549" height="3" x="-160.5" y="101.5" rx="1.5" transform="rotate(45, 114, 103)" opacity="0.46"></rect><rect width="481" height="3" x="-11.5" y="517.5" rx="1.5" transform="rotate(45, 229, 519)" opacity="0.57"></rect><rect width="122" height="3" x="96" y="181.5" rx="1.5" transform="rotate(45, 157, 183)" opacity="0.14"></rect><rect width="355" height="3" x="208.5" y="378.5" rx="1.5" transform="rotate(45, 386, 380)" opacity="0.68"></rect><rect width="442" height="3" x="441" y="76.5" rx="1.5" transform="rotate(45, 662, 78)" opacity="0.63"></rect><rect width="738" height="3" x="-124" y="725.5" rx="1.5" transform="rotate(45, 245, 727)" opacity="0.30"></rect><rect width="579" height="3" x="247.5" y="203.5" rx="1.5" transform="rotate(45, 537, 205)" opacity="0.90"></rect><rect width="644" height="3" x="272" y="386.5" rx="1.5" transform="rotate(45, 594, 388)" opacity="0.60"></rect><rect width="472" height="3" x="182" y="568.5" rx="1.5" transform="rotate(45, 418, 570)" opacity="0.28"></rect><rect width="546" height="3" x="-226" y="50.5" rx="1.5" transform="rotate(45, 47, 52)" opacity="0.41"></rect><rect width="374" height="3" x="260" y="88.5" rx="1.5" transform="rotate(45, 447, 90)" opacity="0.93"></rect><rect width="344" height="3" x="-5" y="30.5" rx="1.5" transform="rotate(45, 167, 32)" opacity="0.71"></rect><rect width="607" height="3" x="-165.5" y="467.5" rx="1.5" transform="rotate(45, 138, 469)" opacity="0.66"></rect><rect width="245" height="3" x="140.5" y="160.5" rx="1.5" transform="rotate(45, 263, 162)" opacity="0.26"></rect><rect width="622" height="3" x="298" y="657.5" rx="1.5" transform="rotate(45, 609, 659)" opacity="0.90"></rect><rect width="312" height="3" x="120" y="305.5" rx="1.5" transform="rotate(45, 276, 307)" opacity="0.53"></rect><rect width="811" height="3" x="-230.5" y="599.5" rx="1.5" transform="rotate(45, 175, 601)" opacity="0.25"></rect><rect width="447" height="3" x="-116.5" y="268.5" rx="1.5" transform="rotate(45, 107, 270)" opacity="0.28"></rect><rect width="427" height="3" x="166.5" y="693.5" rx="1.5" transform="rotate(45, 380, 695)" opacity="0.84"></rect><rect width="340" height="3" x="252" y="761.5" rx="1.5" transform="rotate(45, 422, 763)" opacity="0.66"></rect><rect width="511" height="3" x="243.5" y="411.5" rx="1.5" transform="rotate(45, 499, 413)" opacity="0.46"></rect><rect width="621" height="3" x="-256.5" y="574.5" rx="1.5" transform="rotate(45, 54, 576)" opacity="0.09"></rect><rect width="57" height="3" x="682.5" y="602.5" rx="1.5" transform="rotate(45, 711, 604)" opacity="0.34"></rect><rect width="418" height="3" x="13" y="243.5" rx="1.5" transform="rotate(45, 222, 245)" opacity="0.49"></rect><rect width="463" height="3" x="368.5" y="572.5" rx="1.5" transform="rotate(45, 600, 574)" opacity="0.11"></rect><rect width="144" height="3" x="267" y="16.5" rx="1.5" transform="rotate(45, 339, 18)" opacity="0.73"></rect></g></svg>