<svg xmlns="http://www.w3.org/2000/svg" version="1.1" xmlns:xlink="http://www.w3.org/1999/xlink" xmlns:svgjs="http://svgjs.dev/svgjs" viewBox="0 0 800 800"><defs><linearGradient x1="50%" y1="0%" x2="50%" y2="100%" id="wwwhirl-grad"><stop stop-color="hsla(137, 76%, 16%, 1.00)" stop-opacity="1" offset="45%"></stop><stop stop-color="hsla(0, 7%, 80%, 1.00)" stop-opacity="1" offset="100%"></stop></linearGradient></defs><g stroke-width="2" stroke="hsl(180, 69%, 30%)" fill="none" stroke-linecap="round"><path d="M37.00000251770027 434.6389516844041C50.75000289917 415.45770115225383 75.50000358581553 339.26894903852997 103.000004348755 342.56894913008273C130.50000511169446 345.8689492216355 141.5000054168703 440.78520185492107 169.00000617980973 450.47895212385725C196.5000069427492 460.1727023927934 207.50000724792503 395.0802005869157 235.00000801086446 389.09895042097634C262.500008773804 383.117700255037 273.5000090789798 424.86270141317914 301.0000098419193 421.7689513273484C328.50001060485874 418.67520124151775 339.5000109100345 366.82394980299534 367.000011672974 374.248950008989C394.50001243591345 381.67395021498265 405.5000127410893 461.1214524191148 433.0000135040287 457.40895231611796C460.5000142669682 453.6964522131212 471.50001457214404 361.99769966909946 499.0000153350834 356.42894951460426C526.5000160980228 350.860199360109 537.5000164031987 430.2664515630967 565.0000171661382 430.6789515745408C592.5000179290777 431.0914515859849 603.5000182342535 358.6151995752579 631.000018997193 358.4089495695359C658.5000197601325 358.20269956381384 669.5000200653083 422.6764513525254 697.0000208282477 429.688951547075C724.5000215911871 436.70145174162457 749.2500222778326 399.90645072081156 763.0000226593024 392.0689505033738 " transform="rotate(99, 400, 400)"></path><path d="M48.00000244140632 433.589307289286C61.33333614464971 414.98930677326155 85.3333368104878 341.10930472358996 112.00000421697456 344.30930481236834C138.6666716234613 347.5093049011468 149.33333858605602 439.5493074546358 176.00000599254278 448.9493077154224C202.66667339902952 458.349307976209 213.33334036162427 395.2293062250548 240.000007768111 389.42930606414393C266.6666751745978 383.6293059032331 277.3333421371925 424.10930702628 304.00000954367925 421.1093069430502C330.66667695016605 418.10930685982044 341.3333439127607 367.82930546488967 368.00001131924745 375.0293056646411C394.66667872573424 382.22930586439253 405.33334568832896 459.2693080017328 432.00001309481576 455.6693079018571C458.66668050130244 452.0693078019814 469.3333474638972 363.1493053350512 496.0000148703839 357.7493051852377C522.6666822768707 352.3493050354241 533.3333492394653 429.34930717165463 560.0000166459522 429.7493071827519C586.666684052439 430.1493071938492 597.3333510150337 359.86930524405335 624.0000184215204 359.6693052385047C650.6666858280073 359.46930523295606 661.3333527906019 421.9893069674643 688.0000201970887 428.7893071561184C714.6666876035754 435.5893073447726 738.6666882694134 399.90930635489326 752.0000219726569 392.3093061440445 " transform="rotate(96, 400, 400)"></path><path d="M59.00000236511238 432.5396247471953C71.9166693901294 414.52087424729655 95.16667003516005 342.9496222616772 121.00000408519412 346.0496223476813C146.83333813522813 349.1496224336854 157.1666717552418 438.3133749073779 183.0000058052758 447.4196251600149C208.83333985530987 456.52587541265194 219.1666734753235 395.3783737162213 245.00000752535757 389.7596235603389C270.8333415753916 384.1408734044565 281.1666751954052 423.3558744924082 307.0000092454393 420.4496244117794C332.83334329547336 417.5433743311505 343.16667691548696 368.83462297981134 369.00001096552097 375.8096231733205C394.83334501555504 382.7846233668297 405.1666786355687 457.4171254373781 431.0000126856027 453.9296253406235C456.8333467356368 450.4421252438689 467.16668035565044 364.30087285403033 493.0000144056845 359.06962270889846C518.8333484557185 353.83837256376654 529.1666820757321 428.4321246332399 555.0000161257661 428.8196246439904C580.8333501758003 429.2071246547409 591.1666837958139 361.1233727658762 617.000017845848 360.92962276050093C642.8333518958821 360.7358727551257 653.1666855158957 421.30212443543047 679.0000195659296 427.88962461818915C704.8333536159636 434.4771248009479 728.0833542609943 399.9121238420023 741.0000212860114 392.54962363774257 " transform="rotate(93, 400, 400)"></path><path d="M70.00000228881842 431.4899498344991C82.50000263560909 414.05244935072614 105.00000325983231 344.78994742915904 130.00000395341365 347.7899475123888C155.00000464699497 350.7899475956185 165.00000492442751 437.07744998951455 190.00000561800886 445.88995023400196C215.0000063115902 454.70245047848937 225.00000658902275 395.52744883678236 250.00000728260406 390.0899486859284C275.00000797618543 384.6524485350745 285.000008253618 422.60244958793095 310.0000089471993 419.78994950990307C335.00000964078066 416.97744943187513 345.00000991821315 369.83994812412755 370.0000106117945 376.5899483113945C395.00001130537584 383.33994849866144 405.0000115828084 455.56495050241796 430.0000122763897 452.18995040878445C455.000012969971 448.814950315151 465.0000132474036 365.452448002404 490.00001394098496 360.3899478619538C515.0000146345662 355.3274477215036 525.0000149119987 427.5149497242197 550.0000156055801 427.8899497346234C575.0000162991615 428.26494974502714 585.000016576594 362.3774479170935 610.0000172701755 362.18994791189164C635.0000179637568 362.0024479066898 645.0000182411893 420.61494953279123 670.0000189347705 426.98994970965447C695.0000196283519 433.3649498865177 717.5000202525752 399.9149489585059 730.0000205993658 392.78994876083516 " transform="rotate(90, 400, 400)"></path><path d="M81.00000221252448 430.44030925407833C93.08333588108879 413.5840587864311 114.83333648450457 346.6303069289162 139.0000038216332 349.53030700937165C163.1666711587618 352.43030708982707 172.83333809361326 435.84155940392657 197.0000054307419 444.3603096402644C221.16667276787052 452.87905987660224 230.833339702722 395.67655828961875 255.00000703985063 390.4203081437933C279.16667437697924 385.1640579979678 288.83334131183074 421.8490590157291 313.00000864895935 419.1303089403021C337.16667598608797 416.41155886487513 346.8333429209394 370.8453076007191 371.000010258068 377.3703077817438C395.16667759519663 383.8953079627686 404.8333445300481 453.7128098997332 429.00001186717674 450.4503098092208C453.16667920430535 447.1878097187084 462.8333461391569 366.604057483053 487.00001347628546 361.71030734728447C511.1666808134141 356.81655721151594 520.8333477482655 426.5978091474749 545.0000150853941 426.9603091575318C569.1666824225229 427.32280916758873 578.8333493573742 363.6315574005862 603.000016694503 363.45030739555773C627.1666840316316 363.26905739052927 636.8333509664831 419.9278089624273 661.0000183036116 426.0903091333952C685.1666856407402 432.2528093043629 706.9166862441559 399.91780840728484 719.0000199127203 393.0303082162032 " transform="rotate(87, 400, 400)"></path><path d="M92.00000213623053 429.39064197077664C103.6666691265685 413.1156415192552 124.66666970917683 348.4706397257926 148.00000368985275 351.27063980347367C171.33333767052864 354.07063988115476 180.666671262799 434.6056421154577 204.00000524347493 442.830642343646C227.33333922415085 451.05564257183426 236.66667281642125 395.82564103957435 260.00000679709717 390.7506408987773C283.33334077777306 385.6756407579803 292.66667437004344 421.09564174064633 316.0000083507193 418.4706416678203C339.3333423313953 415.8456415949943 348.66667592366565 371.8506403744298 372.00000990434154 378.1506405492123C395.3333438850174 384.4506407239948 404.6666774772878 451.86064259416753 428.00001145796375 448.7106425067763C451.3333454386397 445.56064241938503 460.6666790309101 367.7556402608212 484.000013011586 363.0306401297343C507.33334699226185 358.30563999864745 516.6666805845323 425.6806418678492 540.0000145652082 426.03064187755933C563.3333485458841 426.38064188726946 572.6666821381544 364.8856401811981 596.0000161188304 364.710640176343C619.3333500995063 364.5356401714879 628.6666836917767 419.2406416891826 652.0000176724526 425.190641854255C675.3333516531285 431.14064201932734 696.3333522357368 399.92064115318294 708.0000192260748 393.2706409686903 " transform="rotate(84, 400, 400)"></path><path d="M103.00000205993659 428.3409594286859C114.25000237204819 412.64720899329023 134.5000029338491 350.31095726387986 157.00000355807228 353.0109573387866C179.50000418229547 355.7109574136934 188.5000044319848 433.3697095681998 211.00000505620795 441.30095978823846C233.50000568043117 449.23221000827715 242.50000593012047 395.9747085307408 265.0000065543437 391.0809583949723C287.5000071785669 386.1872082592037 296.5000074282562 420.34220920677456 319.0000080524794 417.81095913654946C341.5000086767026 415.27970906632436 350.50000892639184 372.8559578893515 373.00000955061506 378.93095805789176C395.5000101748383 385.005958226432 404.5000104245276 450.00846002981285 427.00001104875076 446.97095994554275C449.500011672974 443.9334598612726 458.5000119226633 368.90720777980033 481.00001254688647 364.3509576533951C503.50001317110963 359.7947075269899 512.5000134207988 424.76345932943445 535.0000140450221 425.1009593387978C557.5000146692455 425.43845934816113 566.5000149189347 366.13970770302086 589.0000155431579 365.9709576983392C611.5000161673811 365.8022076936575 620.5000164170704 418.55345915714884 643.0000170412935 424.2909593163257C665.5000176655168 430.02845947550264 685.7500182273176 399.923458640292 697.0000185394292 393.5109584623884 " transform="rotate(81, 400, 400)"></path><path d="M114.00000198364263 427.29129214538426C124.83333561752788 412.17879172611435 144.33333615852135 352.1512900607562 166.0000034262918 354.75129013288864C187.6666706940623 357.3512902050211 196.3333376011705 432.133792279731 218.000004868941 439.77129249162004C239.6666721367115 447.40879270350916 248.3333390438197 396.1237912806964 270.0000063115902 391.4112911499563C291.6666735793607 386.69879101921623 300.33334048646896 419.58879193169184 322.0000077542394 417.1512918640677C343.6666750220099 414.7137917964435 352.3333419291181 373.8612906630622 374.0000091968886 379.71129082536027C395.6666764646591 385.56129098765825 404.3333433717673 448.15629272424724 426.0000106395378 445.2312926430982C447.66667790730827 442.3062925619492 456.3333448144165 370.0587905575685 478.00001208218697 365.671290435845C499.66667934995746 361.28379031412146 508.33334625706556 423.84629204980877 530.0000135248362 424.1712920588253C551.6666807926067 424.49629206784186 560.3333476997147 367.3937904836327 582.0000149674854 367.2312904791244C603.6666822352558 367.06879047461615 612.3333491423641 417.86629188390407 634.0000164101345 423.39129203718556C655.666683677905 428.91629219046706 675.1666842188985 399.9262913861901 686.0000178527837 393.75129121487555 " transform="rotate(78, 400, 400)"></path><path d="M125.00000190734869 426.2416324914771C135.41666886300757 411.71038208833295 154.1666693831936 353.99163048702707 175.00000329451137 356.4916305563852C195.83333720582914 358.9916306257433 204.16667077035626 430.8978826206567 225.00000468167406 438.24163282439616C245.83333859299182 445.58538302813565 254.16667215751897 396.2728816600465 275.00000606883674 391.7416315343349C295.8333399801545 387.2103814086233 304.16667354468166 418.83538228600366 325.0000074559994 416.4916322209804C345.8333413673172 414.1478821559572 354.16667493184434 374.8666310661675 375.00000884316205 380.49163122222325C395.8333427544799 386.11663137827907 404.166676319007 446.30413304807615 425.0000102303248 443.4916329700483C445.83334414164256 440.67913289202033 454.1666777061697 371.2103809647312 475.0000116174875 366.99163084768935C495.83334552880524 362.7728807306475 504.1666790933323 422.9291323995776 525.0000130046501 423.24163240824737C545.8333469159679 423.5541324169171 554.166680480495 368.6478808936391 575.0000143918128 368.49163088930425C595.8333483031306 368.33538088496937 604.1666818676579 417.1791322400539 625.0000157789755 422.49163238743995C645.8333496902933 427.80413253482595 664.5833502104794 399.9291317614828 675.0000171661382 393.9916315967572 " transform="rotate(75, 400, 400)"></path><path d="M136.00000183105476 425.1919652081755C146.00000210848728 411.24196482115707 164.00000260786584 355.8319632839034 184.00000316273093 358.2319633504872C204.00000371759597 360.631963417071 212.000003939542 429.66196533218783 232.00000449440708 436.71196552777775C252.00000504927215 443.76196572336767 260.0000052712182 396.42196441000203 280.0000058260833 392.0719642893189C300.0000063809483 387.72196416863574 308.00000660289436 418.08196501092095 328.00000715775946 415.8319649484986C348.00000771262455 413.58196488607626 356.00000793457053 375.87196383987816 376.0000084894356 381.27196398969176C396.00000904430067 386.67196413950535 404.0000092662467 444.45196574251054 424.0000098211118 441.7519656676037C444.0000103759769 439.05196559269694 452.0000105979229 372.36196374249937 472.000011152788 368.3119636301392C492.000011707653 364.261963517779 500.00001192959905 422.0119651199519 520.0000124844642 422.3119651282749C540.0000130393292 422.61196513659786 548.0000132612753 369.90196367425096 568.0000138161404 369.7519636700895C588.0000143710055 369.601963665928 596.0000145929514 416.4919649668091 616.0000151478165 421.59196510829975C636.0000157026815 426.6919652497903 654.00001620206 399.9319645073809 664.0000164794926 394.2319643492443 " transform="rotate(72, 400, 400)"></path><path d="M146.9999864959717 424.1423093689656C156.5833200951779 410.773558998073 173.83332057374906 357.67230752487154 192.9999877721614 359.972307588681C212.16665497057375 362.2723076524905 219.8333218499387 428.4260594878108 238.99998904835104 435.1823096752511C258.1666562467634 441.9385598626915 265.8333231261284 396.5710586040494 284.9999903245407 392.40230848839474C304.1666575229531 388.23355837274005 311.83332440231806 417.32855917993 330.9999916007304 415.1723091201086C350.1666587991428 413.0160590602872 357.83332567850766 376.8773080576807 376.99999287692003 382.05230820125206C396.1666600753324 387.22730834482337 403.8333269546974 442.59980988103666 422.99999415310975 440.012309809251C442.1666613515221 437.42480973746535 449.83332823088705 373.51355796435934 468.9999954292994 369.6323078566808C488.16666262771173 365.7510577490023 495.83332950707666 421.09480928441803 514.9999967054891 421.3823092923942C534.1666639039015 421.6698093003704 541.8333307832664 371.1560578989546 560.9999979816788 371.0123078949665C580.1666651800912 370.8685578909784 587.8333320594561 415.8048091376562 606.9999992578685 420.69230927325134C626.1666664562807 425.57980940884653 643.4166669348518 399.9348086973708 653.000000534058 394.47230854582324 " transform="rotate(69, 400, 400)"></path><path d="M157.99998641967778 423.09264590036116C167.1666533406576 410.3051455455943 183.6666537984213 359.51264413644515 201.99998764038094 361.7126441974803C220.33332148234058 363.91264425851546 227.66665501912445 427.19014601403916 245.9999888610841 433.65264619332993C264.33332270304373 440.11514637262076 271.6666562398276 396.72014516870223 289.99999008178725 392.732645058076C308.3333239237469 388.7451449474498 315.6666574605308 416.57514571954454 333.99999130249046 414.5126456623241C352.3333251444501 412.4501456051036 359.6666586812339 377.8826446460887 377.99999252319355 382.8326447834178C396.3333263651532 387.7826449207469 403.6666599019371 440.74764639016837 421.99999374389677 438.27264632150377C440.3333275858564 435.79764625283923 447.6666611226403 374.66514455682477 465.9999949645999 370.95264445382793C484.3333288065595 367.24014435083114 491.6666623433434 420.1776458194896 509.9999961853031 420.452645827119C528.3333300272627 420.7276458347484 535.6666635640465 372.41014449426376 553.9999974060063 372.27264449044907C572.3333312479659 372.1351444866343 579.6666647847499 415.1176456791087 597.9999986267094 419.79264580880846C616.3333324686689 424.46764593850816 632.8333329264326 399.93764525796615 641.9999998474125 394.7126451130076 " transform="rotate(66, 400, 400)"></path><path d="M168.99998634338385 422.042970987665C177.7499865861373 409.8367206490239 193.49998702309355 361.35296930392695 210.9999875086005 363.4529693621878C228.4999879941074 365.5529694204486 235.49998818831023 425.95422109617584 252.99998867381714 432.122971267317C270.49998915932406 438.2917214384582 277.49998935352687 396.8692202892633 294.9999898390338 393.0629701836655C312.4999903245407 389.25672007806776 319.4999905187435 415.8217208150673 336.99999100425043 413.85297076044776C354.49999148975735 411.8842207058282 361.49999168396016 378.8879697904049 378.9999921694671 383.61296992149175C396.49999265497405 388.3379700525786 403.4999928491768 438.89547145520817 420.9999933346837 436.53297138966474C438.4999938201907 434.1704713241213 445.4999940143935 375.8167197051984 462.9999944999004 372.2729696068833C480.4999949854073 368.7292195085681 487.4999951796101 419.2604709104694 504.99999566511707 419.522970917752C522.4999961506239 419.7854709250346 529.4999963448267 373.66421964548107 546.9999968303338 373.53296964183977C564.4999973158407 373.4017196381985 571.4999975100434 414.43047077646946 588.9999979955503 418.8929709002738C606.4999984810572 423.35547102407804 622.2499989180135 399.9404703744697 630.999999160767 394.95297023610027 " transform="rotate(63, 400, 400)"></path><path d="M179.9999862670899 420.99330370436337C188.33331983161702 409.368303381848 203.3333202477658 363.1933021008033 219.99998737682003 365.1933021562898C236.66665450587425 367.1933022117763 243.33332135749595 424.71830380770695 259.9999884865502 430.59330397069857C276.6666556156044 436.4683041336902 283.33332246722614 397.01830303921884 299.99998959628033 393.3933029386495C316.6666567253345 389.7683028380802 323.3333235769563 415.0683035399846 339.9999907060105 413.193303487966C356.6666578350647 411.31830343594737 363.3333246866864 379.89330256411563 379.9999918157406 384.39330268896026C396.6666589447948 388.8933028138049 403.33332579641655 437.04330414964255 419.9999929254708 434.79330408722024C436.666660054525 432.5433040247979 443.3333269061467 376.9683024829666 459.9999940352009 373.59330238933313C476.6666611642551 370.21830229569963 483.33332801587676 418.3433036308437 499.99999514493106 418.5933036377795C516.6666622739854 418.8433036447153 523.333329125607 374.9183024260929 539.9999962546613 374.793302422625C556.6666633837156 374.6683024191571 563.3333302353371 413.74330350322475 579.9999973643913 417.9933036211336C596.6666644934455 422.2433037390424 611.6666649095944 399.94330312036783 619.9999984741214 395.1933029885874 " transform="rotate(60, 400, 400)"></path><path d="M190.99998619079594 419.9436440504562C198.9166530770967 408.8998937440667 213.16665347243807 365.03364252707416 228.99998724503956 366.93364257978635C244.83332101764108 368.83364263249854 251.1666545266817 423.48239414863264 266.99998829928325 429.0636443034747C282.8333220718847 434.6448944583167 289.16665558092535 397.1673934185689 304.99998935352687 393.7236433230281C320.83332312612833 390.27989322748726 327.166656635169 414.31489389429635 342.9999904077705 412.5336438448787C358.833324180372 410.75239379546105 365.1666576894126 380.8986429672209 380.9999914620141 385.1736430858233C396.8333252346156 389.4486432044257 403.1666587436563 435.19114447347147 418.99999251625775 433.05364441417026C434.83332628885927 430.91614435486906 441.1666597978999 378.11989289012934 456.99999357050143 374.9136428011775C472.8333273431029 371.70739271222567 479.1666608521435 417.42614398061255 494.99999462474506 417.66364398720157C510.8333283973466 417.9011439937906 517.1666619063872 376.17239283609933 532.9999956789886 376.0536428328048C548.8333294515903 375.9348928295103 555.1666629606309 413.0561438593745 570.9999967332324 417.0936439713879C586.8333305058338 421.13114408340135 601.0833309011753 399.9461434956605 608.9999977874759 395.43364337046904 " transform="rotate(57, 400, 400)"></path><path d="M201.999986114502 418.89398439654906C209.49998632257638 408.43148410628527 222.99998669711033 366.87398295334503 237.99998711325912 368.6739830032829C252.99998752940792 370.47398305322076 258.99998769586745 422.2464844895583 273.99998811201624 427.5339846362508C288.9999885281651 432.82148478294323 294.99998869462456 397.31648379791903 309.9999891107734 394.05398370740664C324.9999895269222 390.7914836168943 330.99998969338174 413.56148424860817 345.99999010953053 411.8739842017914C360.9999905256793 410.18648415497466 366.9999906921388 381.9039833703261 381.99999110828765 385.9539834826863C396.99999152443644 390.00398359504646 402.99999169089597 433.3389847973004 417.99999210704476 431.3139847411203C432.99999252319355 429.2889846849402 438.99999268965314 379.271483297292 453.99999310580193 376.2339832130219C468.9999935219507 373.19648312875177 474.9999936884102 416.5089843303814 489.99999410455905 416.7339843366236C504.9999945207079 416.95898434286585 510.9999946871674 377.4264832461057 525.9999951033162 377.3139832429846C540.9999955194651 377.2014832398635 546.9999956859245 412.36898421552434 561.9999961020733 416.1939843216423C576.9999965182221 420.01898442776024 590.499996892756 399.94898387095316 597.9999971008303 395.67398375235075 " transform="rotate(54, 400, 400)"></path><path d="M212.99998603820805 417.84431139120153C220.08331956805608 407.9630611170635 232.8333199217826 368.7143100281755 246.99998698147868 370.414310075339C261.16665404117475 372.1143101225025 266.8333208650532 421.0105614790436 280.9999879247493 426.0043116175865C295.16665498444536 430.99806175612935 300.83332180832383 397.4655608258287 314.99998886801995 394.3843107403448C329.166655927716 391.3030606548609 334.83332275159444 412.80806125147956 348.99998981129056 411.21431120726373C363.1666568709866 409.6205611630479 368.83332369486504 382.90931042199094 382.99999075456117 386.7343105281089C397.16665781425723 390.55931063422685 402.8333246381357 431.48681176968887 416.9999916978318 429.5743117166299C431.1666587575279 427.6618116635709 436.8333255814063 380.4230603530143 450.99999264110244 377.5543102734258C465.1666597007985 374.6855601938374 470.8333265246769 415.5918113287098 484.99999358437304 415.8043113346053C499.16666064406917 416.01681134050074 504.8333274679476 378.68056030467164 518.9999945276437 378.5743103017239C533.1666615873398 378.4680602987762 538.8333284112182 411.6818112202337 552.9999954709143 415.29431132045625C567.1666625306103 418.9068114206787 579.9166628843368 399.95181089480536 586.9999964141849 395.914310782792 " transform="rotate(51, 400, 400)"></path><path d="M223.9999859619141 416.7946460152485C230.6666528135358 407.49464575723624 242.66665314645485 370.55464473240045 255.99998684969822 372.1546447767896C269.3333205529416 373.75464482117883 274.66665403423895 419.7746460979234 287.99998773748234 424.47464622831666C301.3333214407257 429.17464635871 306.6666549220231 397.6146454831329 319.99998862526644 394.71464540267743C333.33332232850984 391.814645322222 338.6666558098072 412.0546458837455 351.99998951305054 410.5546458421306C365.33332321629393 409.0546458005157 370.6666566975913 383.9146451030503 383.9999904008347 387.51464520292603C397.3333241040781 391.1146453028017 402.66665758537545 429.6346463714719 415.99999128861884 427.834646321534C429.3333249918621 426.03464627159616 434.66665847315954 381.5746450381311 447.9999921764029 378.8746449632243C461.3333258796463 376.1746448883175 466.6666593609436 414.6746459564328 479.99999306418704 414.87464596198146C493.33332676743044 415.0746459675301 498.6666602487278 379.9346449926322 511.99999395197113 379.83464498985785C525.3333276552146 379.7346449870835 530.666661136512 410.9946458543376 543.9999948397553 414.3946459486647C557.3333285429986 417.79464604299176 569.3333288759177 399.9546455480521 575.9999957275394 396.1546454426277 " transform="rotate(48, 400, 400)"></path><path d="M234.99998588562016 415.7449825466441C241.2499860590155 407.02623230475757 252.49998637112708 372.39498134397405 264.99998671791775 373.89498138558895C277.4999870647084 375.3949814272038 282.49998720342467 418.5387326241518 294.99998755021534 422.9449827463955C307.499987897006 427.3512328686392 312.4999880357223 397.7637320477857 324.999988382513 395.04498197235876C337.49998872930365 392.32623189693174 342.49998886801995 411.30123242336 354.9999892148106 409.89498238434606C367.4999895616013 408.4887323453321 372.49998970031754 384.9199816914583 384.9999900471082 388.29498178509175C397.4999903938989 391.66998187872525 402.49999053261513 427.7824828806035 414.9999908794058 426.09498283378673C427.49999122619647 424.40748278697004 432.4999913649127 382.72623163059654 444.9999917117034 380.1949815603714C457.49999205849406 377.6637314901463 462.4999921972103 413.7574824915044 474.999992544001 413.94498249670625C487.4999928907917 414.1324825019081 492.49999302950795 381.1887315879413 504.9999933762987 381.09498158534035C517.4999937230893 381.0012315827394 522.4999938618056 410.30748239579015 534.9999942085963 413.49498248422174C547.4999945553868 416.6824825726534 558.7499948674986 399.95748210864747 564.9999950408939 396.3949820098121 " transform="rotate(45, 400, 400)"></path><path d="M245.9999858093262 414.6953190780397C251.83331930449518 406.55781885227896 262.33331959579937 374.23531795554766 273.9999865861373 375.6353179943882C285.66665357647526 377.03531803322875 290.33332037261044 417.30281915038023 301.9999873629484 421.41531926447436C313.6666543532864 425.5278193785685 318.3333211494216 397.9128186124385 329.9999881397595 395.37531854204C341.66665513009747 392.8378184716415 346.33332192623266 410.54781896297453 357.9999889165706 409.23531892656155C369.66665590690855 407.9228188901485 374.3333227030438 385.9253182798663 385.99998969338174 389.0753183672575C397.6666566837197 392.2253184546488 402.3333234798548 425.93031938973513 413.9999904701928 424.3553193460395C425.6666574605308 422.7803193023439 430.33332425666595 383.877818223062 441.99999124700395 381.51531815751855C453.66665823734184 379.1528180919751 458.3333250334771 412.84031902657597 469.999992023815 413.01531903143103C481.66665901415297 413.1903190362861 486.33332581028816 382.4428181832504 497.99999280062616 382.35531818082285C509.6666597909641 382.2678181783953 514.3333265870992 409.6203189372427 525.9999935774372 412.59531901977886C537.6666605677751 415.570319102315 548.1666608590793 399.96031866924284 553.9999943542483 396.6353185769965 " transform="rotate(42, 400, 400)"></path><path d="M256.99998573303225 413.64564225799484C262.41665254997486 406.0893920483599 272.1666528204716 376.07564121568083 282.9999864543569 377.3756412517471C293.8333200882421 378.6756412878133 298.1666535417962 416.0668923251682 308.99998717568144 419.8856424311128C319.83332080956666 423.7043925370573 324.1666542631208 398.06189182565095 334.999987897006 395.7056417602809C345.8333215308913 393.3493916949109 350.1666549844454 409.79439215114866 360.99998861833063 408.57564211733654C371.8333222522159 407.3568920835245 376.16665570577 386.9306415168338 386.99998933965526 389.85564159798287C397.8333229735405 392.78064167913186 402.1666564270946 424.07814254742635 412.9999900609798 422.6156425068518C423.83332369486504 421.15314246627736 428.1666571484192 385.029391464087 438.9999907823044 382.8356414032252C449.83332441618967 380.64189134236346 454.16665786974374 411.9231422102071 464.999991503629 412.0856422147154C475.8333251375143 412.24814221922367 480.1666585910683 383.6968914271191 490.99999222495364 383.615641424865C501.83332585883886 383.53439142261084 506.166659312393 408.93314212725477 516.9999929462782 411.69564220389555C527.8333265801634 414.45814228053626 537.5833268506601 399.9631418783978 542.9999936676028 396.8756417927405 " transform="rotate(39, 400, 400)"></path><path d="M267.9999856567383 412.59599023348227C272.99998579545456 405.6209900399731 281.9999860451438 377.91598927134623 291.99998632257643 379.1159893046381C301.9999866000089 380.31598933793003 305.99998671098194 414.83099029548845 315.9999869884145 418.3559903932834C325.99998726584704 421.88099049107836 329.99998737682006 398.21098983439555 339.99998765425255 396.035989774054C349.9999879316851 393.8609897137124 353.9999880426581 409.040990134855 363.99998832009067 407.9159901036438C373.9999885975232 406.7909900724327 377.9999887084962 387.9359895493336 387.9999889859287 390.63598962424044C397.9999892633613 393.3359896991472 401.9999893743343 422.2259905006498 411.99998965176684 420.8759904631964C421.9999899291994 419.52599042574303 425.9999900401724 386.1809895006442 435.9999903176049 384.1559894444641C445.99999059503745 382.13098938828404 449.99999070601046 411.0059901893705 459.999990983443 411.155990193532C469.99999126087556 411.30599019769346 473.9999913718486 384.95098946652 483.9999916492811 384.8759894644393C493.9999919267137 384.80098946235853 497.99999203768664 408.2459901127991 507.9999923151192 410.7959901835444C517.9999925925517 413.3459902542897 526.999992842241 399.96598988308494 531.9999929809572 397.1159898040167 " transform="rotate(36, 400, 400)"></path><path d="M279.0000008392334 411.5463229501806C283.58333429972333 405.15257277279716 291.8333345286052 379.7563220682226 301.000001449585 380.8563220987401C310.1666683705648 381.9563221292577 313.8333351389567 413.5950730070196 323.0000020599366 416.82632309666496C332.16666898091637 420.0575731863104 335.83333574930833 398.3600725843511 345.00000267028815 396.36632252903803C354.166669591268 394.3725724737249 357.83333635965994 408.28757285977224 367.00000328063976 407.25632283116204C376.1666702016196 406.22507280255184 379.8333369700115 388.94132232304435 389.0000038909913 391.4163223917089C398.16667081197113 393.89132246037343 401.8333375803631 420.3738231950842 411.0000045013429 419.1363231607519C420.16667142232274 417.89882312641964 423.8333381907147 387.3325722784124 433.00000511169446 385.47632222691396C442.1666720326743 383.62007217541554 445.83333880106625 410.0888229097448 455.00000572204607 410.2263229135595C464.1666726430259 410.3638229173742 467.8333394114178 386.20507224713185 477.0000063323977 386.1363222452245C486.1666732533775 386.06757224331716 489.83334002176946 407.55882283955435 499.0000069427492 409.8963229044042C508.166673863729 412.2338229692541 516.4166740926108 399.96882262898305 521.0000075531008 397.3563225565038 " transform="rotate(33, 400, 400)"></path><path d="M290.00000076293946 410.49664994483305C294.16666754520304 404.6841497835754 301.66666775327747 381.596649143053 310.00000131780456 382.59664917079624C318.33333488233166 383.5966491985395 321.6666683081425 412.35914999650487 330.0000018726696 415.29665007800065C338.33333543719675 418.2341501594965 341.6666688630076 398.5091496122608 350.0000024275347 396.69664956197613C358.3333359920618 394.8841495116915 361.66666941787264 407.53414986264363 370.0000029823998 406.59664983663436C378.3333365469269 405.659149810625 381.66666997273774 389.9466493747092 390.00000353726483 392.1966494371315C398.3333371017919 394.4466494995538 401.66667052760283 418.52165016747267 410.0000040921299 417.3966501362615C418.333337656657 416.2716501050503 421.6666710824679 388.48414933413466 430.00000464699497 386.7966492873179C438.3333382115221 385.1091492405012 441.6666716373329 409.1716499080732 450.00000520186006 409.2966499115411C458.3333387663872 409.421649915009 461.666672192198 387.45914930569785 470.00000575672516 387.3966493039639C478.3333393212523 387.33414930222995 481.6666727470631 406.87164984426374 490.0000063115902 408.99664990321816C498.3333398761173 411.12164996217257 505.8333400841917 399.9716496528353 510.00000686645524 397.5966495869451 " transform="rotate(30, 400, 400)"></path><path d="M301.00000068664554 409.4469855225543C304.75000079068275 404.21573537742245 311.5000009779497 383.4369848009523 319.00000118602406 384.3369848259212C326.5000013940985 385.23698485089017 329.5000014773283 411.123235569059 337.00000168540265 413.7669856424052C344.5000018934771 416.4107357157514 347.5000019767068 398.6582352232393 355.00000218478124 397.0269851779831C362.50000239285566 395.39573513272694 365.5000024760854 406.78073544858387 373.00000268415977 405.9369854251755C380.5000028922342 405.0932354017671 383.50000297546393 390.95198500944286 391.00000318353835 392.97698506562296C398.5000033916127 395.00198512180305 401.5000034748425 416.66948572292995 409.00000368291694 415.65698569483993C416.5000038909913 414.64448566674986 419.5000039742211 389.6357349729258 427.00000418229547 388.11698493079075C434.5000043903699 386.59823488865567 437.50000447359963 408.2544854894705 445.00000468167406 408.3669854925916C452.5000048897485 408.4794854957127 455.5000049729782 388.71323494733264 463.00000518105264 388.6569849457721C470.50000538912707 388.6007349442115 473.5000054723568 406.1844854320419 481.0000056804312 408.09698548510096C488.5000058885056 410.0094855381599 495.25000607577255 399.97448525975636 499.0000061798097 397.83698520045516 " transform="rotate(27, 400, 400)"></path><path d="M311.999992980957 408.3973239612986C315.3333264067679 403.7473238322924 321.3333265732274 385.27732331987454 327.9999934248491 386.0773233420691C334.6666602764708 386.87732336426376 337.3333270171195 409.887324002636 343.99999386874117 412.2373240678327C350.66666072036287 414.5873241330293 353.33332746101155 398.80732369524077 359.99999431263325 397.35732365501303C366.66666116425495 395.9073236147853 369.3333279049036 406.02732389554706 375.99999475652527 405.27732387473964C382.66666160814697 404.52732385393216 385.33332834879565 391.9573235051995 391.99999520041735 393.7573235551373C398.66666205203904 395.55732360507517 401.3333287926877 414.81732413941023 407.9999956443094 413.9173241144413C414.66666249593106 413.01732408947237 417.33332923657974 390.78732347273984 423.99999608820144 389.4373234352865C430.66666293982314 388.0873233978331 433.3333296804718 407.3373239318907 439.9999965320935 407.437323934665C446.6666633837152 407.53732393743934 449.3333301243639 389.9673234499904 455.9999969759856 389.9173234486032C462.6666638276073 389.86732344721605 465.333330568256 405.4973238808431 471.9999974198777 407.19732392800665C478.6666642714993 408.8973239751702 484.66666443795884 399.97732372770037 487.9999978637697 398.0773236749882 " transform="rotate(24, 400, 400)"></path><path d="M322.9999929046631 407.3476576316712C325.9166596522476 403.27890751879085 331.1666597978997 387.1176570704252 336.99999329306866 387.81765708984545C342.8333267882376 388.51765710926577 345.1666601863052 408.65140766784145 350.99999368147417 410.7076577248885C356.8333271766432 412.7639077819356 359.1666605747108 398.9564073988706 364.9999940698798 397.6876573636714C370.83332756504876 396.41890732847213 373.1666609631163 405.27390757413866 378.9999944582853 404.6176575559321C384.8333279534543 403.9614075377256 387.1666613515219 392.9626572325845 392.99999484669087 394.53765727628013C398.83332834185984 396.11265731997577 401.1666617399274 412.96515778751893 406.99999523509643 412.17765776567114C412.8333287302654 411.3901577438233 415.166662128333 391.9389072041823 420.99999562350195 390.75765717141064C426.8333291186709 389.5764071386389 429.16666251673854 406.4201576059394 434.9999960119075 406.5076576083669C440.8333295070765 406.59515761079444 443.1666629051441 391.2214071842766 448.9999964003131 391.1776571830628C454.83332989548205 391.13390718184905 457.1666632935496 404.8101575612727 462.9999967887186 406.29765760254077C468.83333028388756 407.7851576438089 474.08333042953967 399.9801574272728 476.99999717712416 398.3176573811496 " transform="rotate(21, 400, 400)"></path><path d="M333.99999282836916 406.2979922557182C336.4999928977273 402.8104921589636 340.9999930225719 388.95799177465017 345.9999931612882 389.5579917912961C350.99999330000446 390.15799180794204 352.999993355491 407.41549228672125 357.9999934942073 409.17799233561874C362.9999936329235 410.94049238451623 364.99999368841003 399.10549205617485 369.9999938271263 398.01799202600404C374.9999939658426 396.9304919958332 376.99999402132903 404.5204922064045 381.99999416004533 403.95799219079896C386.99999429876164 403.3954921751934 388.9999943542481 393.96799191364386 393.99999449296433 395.31799195109727C398.99999463168064 396.6679919885506 400.99999468716715 411.11299238930195 405.9999948258834 410.4379923705753C410.9999949645997 409.76299235184854 412.9999950200862 393.0904918892992 417.99999515880245 392.0779918612091C422.9999952975187 391.06549183311904 424.99999535300526 405.5029922336623 429.9999954917215 405.57799223574307C434.99999563043775 405.6529922378238 436.9999956859243 392.47549187223706 441.99999582464056 392.4379918711967C446.9999959633568 392.4004918701563 448.9999960188433 404.1229921953766 453.9999961575596 405.39799223074925C458.99999629627587 406.6729922661219 463.4999964211205 399.9829920805195 465.9999964904786 398.55799204098537 " transform="rotate(18, 400, 400)"></path><path d="M344.99999656677244 405.24832687976516C347.08332995790425 402.3420767991363 350.83333006194147 390.79832647887514 354.99999684420504 391.29832649274675C359.16666362646856 391.79832650661837 360.833330339374 406.17957690560104 364.99999712163753 407.64832694634896C369.1666639039011 409.1170769870969 370.8333306168065 399.254576713479 374.9999973990701 398.34832668833667C379.16666418133366 397.44207666319437 380.83333089423905 403.76707683867045 384.99999767650263 403.2983268256658C389.16666445876615 402.8295768126612 390.8333311716716 394.9733265947032 394.9999979539351 396.0983266259144C399.1666647361987 397.22332665712554 400.83333144910415 409.26082699108497 404.9999982313677 408.6983269754794C409.16666501363125 408.1358269598738 410.8333317265367 394.242076574416 414.9999985088002 393.3983265510076C419.1666652910638 392.55457652759924 420.8333320039692 404.58582686138527 424.99999878623277 404.6483268631192C429.16666556849634 404.7108268648532 430.83333228140174 393.72957656019753 434.9999990636653 393.69832655933055C439.1666658459289 393.6670765584636 440.8333325588343 403.4358268294805 444.9999993410978 404.49832685895774C449.1666661233614 405.5608268884349 452.9166662273986 399.98582673376626 454.99999961853035 398.7983267008212 " transform="rotate(15, 400, 400)"></path><path d="M355.9999964904785 404.19866341116074C357.66666320338396 401.8736633466577 360.6666632866137 392.63866309044874 363.99999671242455 393.03866310154604C367.3333301382354 393.4386631126433 368.66666350855974 404.94366343182946 371.9999969343706 406.1186634644278C375.33333036018144 407.2936634970261 376.6666637305058 399.40366327813183 379.9999971563166 398.678663258018C383.3333305821275 397.95366323790415 384.6666639524518 403.013663378285 387.9999973782626 402.6386633678813C391.3333308040735 402.2636633574775 392.66666417439785 395.9786631831112 395.99999760020864 396.8786632080801C399.33333102601955 397.7786632330491 400.6666643963439 407.4086635002166 403.9999978221547 406.9586634877321C407.33333124796553 406.50866347524766 408.6666646182899 395.3936631668814 411.9999980441007 394.7186631481547C415.33333146991157 394.043663129428 416.6666648402359 403.66866339645685 419.99999826604676 403.718663397844C423.3333316918576 403.7686633992312 424.66666506218195 394.9836631555067 427.9999984879928 394.9586631548131C431.33333191380365 394.93366315411953 432.666665284128 402.74866337093306 435.99999870993884 403.5986633945148C439.33333213574963 404.44866341809654 442.3333322189794 399.9886632943617 443.9999989318849 399.03866326800556 " transform="rotate(12, 400, 400)"></path><path d="M366.9999964141846 403.14899803520774C368.2499964488636 401.40524798683043 370.499996511286 394.4789977946737 372.9999965806441 394.7789978029967C375.49999665000223 395.07899781131965 376.49999667774546 403.70774805070926 378.99999674710364 404.58899807515803C381.49999681646176 405.47024809960675 382.49999684420504 399.55274793543606 384.9999969135631 399.0089979203507C387.4999969829213 398.46524790526524 388.4999970106645 402.2602480105509 390.9999970800227 401.9789980027481C393.4999971493808 401.6977479949453 394.49999717712404 396.98399786417053 396.99999724648217 397.65899788289727C399.49999731584035 398.33399790162395 400.4999973435836 405.55649810199964 402.9999974129417 405.21899809263624C405.4999974822998 404.8814980832729 406.4999975100431 396.5452478519982 408.9999975794012 396.03899783795316C411.49999764875935 395.53274782390815 412.49999767650263 402.7514980241798 414.99999774586075 402.78899802522017C417.4999978152189 402.82649802626054 418.49999784296216 396.23774784346716 420.9999979123203 396.218997842947C423.4999979816784 396.2002478424268 424.4999980094217 402.0614980050369 426.9999980787798 402.69899802272323C429.49999814813793 403.3364980404096 431.74999821056025 399.9914979476084 432.99999824523934 399.2789979278413 " transform="rotate(9, 400, 400)"></path><path d="M378.0000001525879 402.09933075190605C378.8333335090406 400.93683071965455 380.3333335506555 396.31933059155006 382.0000002635609 396.5193305970987C383.66666697646633 396.71933060264735 384.3333336616285 402.4718307622404 386.0000003745339 403.05933077853956C387.66666708743935 403.64683079483876 388.3333337726015 399.7018306853916 390.0000004855069 399.3393306753347C391.66666719841237 398.97683066527776 392.33333388357454 401.50683073546816 394.00000059647994 401.3193307302663C395.6666673093854 401.13183072506445 396.33333399454756 397.98933063788127 398.00000070745295 398.4393306503658C399.6666674203584 398.8893306628502 400.3333341055206 403.70433079643396 402.000000818426 403.47933079019174C403.6666675313314 403.2543307839495 404.33333421649354 397.6968306297664 406.000000929399 397.35933062040306C407.66666764230445 397.0218306110397 408.33333432746656 401.8343307445541 410.000001040372 401.8593307452477C411.66666775327747 401.88433074594127 412.3333344384396 397.491830624079 414.00000115134503 397.4793306237322C415.6666678642505 397.4668306233854 416.3333345494126 401.3743307317922 418.00000126231805 401.7993307435831C419.66666797522345 402.22433075537396 421.16666801683834 399.9943306935065 422.00000137329107 399.5193306803285 " transform="rotate(6, 400, 400)"></path><path d="M389.00000007629393 401.04966537595305C389.4166667545203 400.46841535982725 390.1666667753277 398.159665295775 391.00000013178044 398.25966529854935C391.83333348823317 398.3596653013237 392.1666668308143 401.2359153811202 393.00000018726695 401.5296653892698C393.8333335437197 401.82341539741935 394.16666688630073 399.8509153426958 395.00000024275346 399.6696653376673C395.8333335992062 399.48841533263885 396.1666669417873 400.7534153677341 397.00000029823997 400.65966536513315C397.8333336546927 400.5659153625322 398.16666699727375 398.99466531894063 399.0000003537265 399.21966532518286C399.8333337101792 399.4446653314251 400.16666705276026 401.852165398217 401.000000409213 401.73966539509587C401.8333337656657 401.62716539197476 402.16666710824677 398.8484153148832 403.0000004646995 398.67966531020153C403.8333338211522 398.51091530551986 404.1666671637333 400.91716537227705 405.000000520186 400.92966537262384C405.83333387663873 400.94216537297063 406.1666672192198 398.74591531203953 407.0000005756725 398.73966531186613C407.83333393212524 398.73341531169274 408.1666672747063 400.6871653658961 409.000000631159 400.89966537179157C409.8333339876117 401.112165377687 410.5833340084192 399.99716534675326 411.00000068664554 399.75966534016425 " transform="rotate(3, 400, 400)"></path></g></svg>